<?xml version="1.0" standalone="no"?>
<!DOCTYPE svg PUBLIC "-//W3C//DTD SVG 20010904//EN"
 "http://www.w3.org/TR/2001/REC-SVG-20010904/DTD/svg10.dtd">
<svg version="1.0" xmlns="http://www.w3.org/2000/svg"
 width="1280.000000pt" height="640.000000pt" viewBox="0 0 1280.000000 640.000000"
 preserveAspectRatio="xMidYMid meet">
<metadata>
Created by potrace 1.15, written by Peter Selinger 2001-2017
</metadata>
<g transform="translate(0.000000,640.000000) scale(0.100000,-0.100000)"
fill="#000000" stroke="none">
<path d="M2795 6139 c-3 -9 -1 -36 4 -60 6 -24 11 -47 11 -51 0 -11 -49 -10
-88 1 -31 9 -30 7 36 -64 106 -114 241 -321 272 -418 17 -56 7 -82 -46 -113
-35 -20 -62 -28 -112 -30 -37 -1 -72 -3 -78 -3 -19 -1 -23 -38 -7 -60 21 -31
80 -68 268 -171 281 -154 456 -282 511 -376 29 -49 26 -76 -12 -100 -21 -14
-47 -16 -182 -10 -464 18 -626 18 -702 2 -76 -16 -123 -41 -128 -68 -2 -9 5
-19 15 -23 10 -4 132 -11 272 -16 502 -16 820 -67 871 -140 28 -38 92 -178
120 -259 67 -198 57 -265 -59 -380 -78 -79 -189 -119 -426 -157 -163 -25 -540
-25 -650 1 -230 53 -636 236 -726 326 -80 80 -94 142 -118 531 -11 173 -17
191 -69 187 -28 -2 -40 -10 -55 -35 -20 -36 -36 -161 -37 -293 0 -105 -6 -130
-32 -130 -76 0 -232 182 -354 416 -105 199 -138 232 -190 183 -36 -34 -31 -75
27 -213 29 -66 54 -139 56 -162 5 -40 4 -41 -38 -61 -24 -11 -62 -26 -84 -33
-22 -7 -85 -34 -140 -60 -96 -46 -145 -80 -145 -100 0 -5 25 -38 56 -72 62
-69 90 -118 81 -141 -22 -57 -502 -224 -657 -228 -62 -1 -94 -12 -98 -32 -5
-22 5 -22 177 8 303 53 489 115 593 197 21 16 46 28 55 26 33 -8 -54 -76 -161
-128 -185 -89 -420 -161 -654 -200 -135 -23 -172 -34 -172 -51 0 -15 58 -8
247 26 234 43 449 105 589 169 130 59 248 167 260 235 3 20 14 48 25 63 10 15
19 36 19 47 0 11 10 32 22 46 18 20 35 27 80 32 77 8 131 -19 270 -136 170
-143 394 -283 607 -382 47 -22 174 -76 281 -120 340 -140 659 -307 748 -392
51 -48 85 -112 78 -143 -18 -68 -88 -122 -196 -150 -89 -22 -487 -30 -775 -15
-529 28 -1016 73 -1115 103 -50 15 -150 75 -281 169 -191 138 -271 170 -339
136 -57 -29 -31 -66 144 -206 67 -52 159 -133 206 -178 73 -70 83 -84 74 -100
-6 -10 -76 -53 -155 -96 -198 -109 -272 -159 -356 -242 -77 -76 -97 -121 -73
-165 18 -33 45 -23 225 80 376 217 641 323 825 332 65 3 75 1 78 -15 2 -9 -19
-64 -48 -120 -28 -57 -53 -119 -56 -139 -5 -31 -3 -38 19 -53 22 -14 32 -15
60 -6 40 14 127 101 181 183 20 31 55 73 77 92 33 31 46 36 92 38 356 10 994
-62 1181 -133 69 -27 116 -76 116 -122 0 -67 -98 -218 -206 -316 -69 -63 -225
-141 -512 -256 -276 -110 -446 -166 -522 -172 -47 -4 -107 3 -215 23 -232 43
-295 37 -295 -26 0 -51 43 -73 256 -125 80 -19 163 -44 185 -55 62 -32 55 -55
-49 -159 -125 -126 -165 -217 -128 -289 8 -15 26 -34 41 -42 37 -20 72 1 106
63 48 89 95 140 244 266 83 69 168 140 190 157 125 96 457 264 526 267 l44 2
-1 -45 c-1 -49 -58 -192 -116 -287 -49 -82 -140 -176 -256 -266 -164 -126
-188 -158 -162 -207 12 -23 59 -34 102 -25 17 4 100 54 184 110 l151 102 18
-30 c38 -64 168 -228 200 -253 24 -18 43 -24 67 -22 31 3 33 6 36 43 2 33 -8
62 -59 160 -34 66 -72 148 -85 183 -31 81 -27 97 76 307 43 88 92 195 110 237
56 138 245 437 342 543 62 68 110 88 208 87 120 -1 212 -38 258 -106 45 -66
121 -378 129 -533 7 -123 -14 -205 -90 -352 -152 -292 -151 -290 -117 -334 29
-37 86 -38 128 -2 38 32 113 149 181 282 36 71 58 103 70 103 18 0 134 -76
208 -136 55 -45 78 -104 69 -182 -3 -31 -27 -157 -52 -280 -67 -331 -54 -383
54 -222 47 69 62 100 62 126 0 68 23 180 46 225 27 54 66 90 137 126 55 28
100 24 121 -10 9 -15 7 -21 -13 -36 -30 -23 -24 -56 20 -105 36 -42 64 -52 94
-36 35 19 73 7 279 -85 128 -57 194 -82 204 -76 19 11 26 7 -173 90 -198 84
-241 107 -284 156 -35 40 -40 82 -15 120 39 59 -2 97 -235 219 -251 132 -348
210 -410 334 -59 117 -172 568 -157 628 10 41 110 134 191 179 39 21 106 59
150 85 44 26 100 58 125 70 25 13 66 40 92 62 56 47 188 124 290 170 100 44
155 45 224 0 68 -43 122 -49 554 -62 516 -15 621 -24 1140 -96 140 -19 314
-38 387 -43 72 -4 137 -12 145 -18 40 -33 530 -130 893 -178 223 -29 571 -110
604 -140 11 -9 37 -15 70 -15 29 0 62 -5 74 -12 12 -6 49 -13 82 -14 33 0 131
-16 217 -33 152 -31 158 -31 195 -15 21 9 43 16 48 14 6 -1 51 -12 100 -24
120 -30 240 -98 290 -167 63 -85 131 -233 186 -401 61 -191 138 -387 201 -513
68 -136 111 -252 163 -440 64 -234 95 -304 166 -373 64 -63 175 -106 199 -78
19 23 7 52 -64 159 -115 176 -164 367 -93 367 34 0 58 -20 217 -175 165 -161
199 -181 323 -194 45 -4 83 -7 84 -6 6 4 -175 216 -246 288 -42 43 -130 124
-196 180 -285 243 -288 247 -460 727 -48 135 -111 307 -140 382 -38 100 -49
138 -38 138 17 0 95 -39 176 -89 108 -66 247 -138 416 -215 275 -126 475 -259
621 -412 83 -87 106 -128 145 -254 50 -161 88 -226 189 -325 156 -153 331
-244 468 -245 37 0 79 5 94 11 l28 10 -29 25 c-17 13 -97 72 -179 132 -168
120 -255 201 -287 264 -29 56 -49 132 -49 187 l0 44 58 -6 c31 -4 120 -21 197
-39 120 -27 160 -32 280 -32 142 -1 205 11 205 39 0 23 -156 79 -395 140 -285
73 -397 121 -565 245 -318 232 -431 304 -640 406 -207 101 -305 157 -490 280
-155 103 -183 124 -208 156 -12 15 -7 20 46 47 33 17 131 59 218 95 88 35 211
88 274 116 154 69 209 80 415 80 269 0 1121 -39 1315 -60 132 -15 210 -13 217
6 17 44 -147 135 -335 184 -153 41 -251 51 -587 60 -181 4 -355 14 -385 20
-165 36 -92 93 273 216 301 102 534 226 670 359 65 63 90 105 85 142 -8 64
-60 49 -298 -83 -232 -128 -350 -181 -580 -259 -210 -71 -329 -122 -470 -201
-161 -89 -663 -343 -772 -390 -54 -23 -78 -29 -78 -20 0 7 32 63 70 125 82
131 129 239 165 377 61 239 191 406 523 671 157 126 232 196 232 219 0 22
-105 18 -175 -6 -120 -41 -252 -124 -377 -237 -74 -66 -145 -113 -170 -113
-29 0 -58 70 -58 139 0 96 36 179 155 352 109 159 140 250 88 257 -35 5 -81
-25 -155 -101 -83 -85 -227 -273 -261 -342 -41 -84 -48 -144 -57 -490 -9 -350
-13 -384 -63 -481 -50 -100 -192 -257 -287 -320 -22 -15 -108 -41 -235 -72
l-199 -49 -61 18 c-132 39 -443 91 -655 109 -168 15 -167 14 -190 59 -29 57
-57 65 -255 66 -115 1 -214 9 -305 23 -232 35 -320 44 -480 48 -137 3 -163 6
-223 29 -133 49 -463 105 -753 125 -134 10 -203 7 -252 -11 -15 -6 -37 -3 -65
7 -127 47 -173 52 -642 69 l-340 12 -94 -62 -94 -62 -76 27 c-42 15 -101 33
-131 40 -73 17 -123 65 -272 262 -65 86 -141 176 -168 200 -42 37 -57 61 -106
173 -74 170 -100 247 -115 340 -18 115 -6 335 31 540 62 348 66 380 47 409
-23 34 -59 34 -86 0 -27 -34 -60 -141 -100 -319 -70 -307 -105 -415 -134 -415
-18 0 -53 40 -62 70 -4 14 -64 144 -133 289 -75 158 -127 281 -129 305 -9 82
103 211 301 346 58 39 124 88 148 110 37 33 41 41 32 57 -21 33 -99 22 -190
-26 -106 -55 -194 -123 -339 -260 -66 -62 -129 -118 -141 -123 -16 -8 -35 -3
-84 22 -128 65 -170 104 -170 162 0 13 -9 36 -20 53 -11 16 -25 55 -31 85 -20
97 -109 272 -276 543 -71 115 -99 148 -108 126z m779 -1092 c15 -22 51 -146
44 -152 -2 -2 -27 17 -56 42 -63 54 -89 97 -71 119 18 22 66 17 83 -9z m216
-462 c168 -339 187 -355 285 -249 l52 57 6 -33 c4 -18 7 -87 7 -154 0 -148 13
-222 50 -296 59 -116 347 -477 520 -650 193 -194 248 -205 1135 -235 602 -20
543 -16 520 -39 -18 -18 -30 -18 -170 -12 -82 3 -213 11 -290 16 -184 12 -440
12 -648 0 -233 -14 -280 -22 -347 -65 -65 -42 -156 -87 -222 -110 -26 -9 -110
-60 -187 -113 -77 -53 -179 -119 -227 -147 -105 -60 -196 -145 -225 -211 -27
-60 -22 -116 25 -310 46 -186 90 -321 139 -427 22 -48 38 -90 35 -92 -3 -3
-23 -2 -44 3 -50 11 -99 0 -129 -28 -12 -12 -50 -76 -83 -143 -57 -114 -131
-220 -132 -188 0 8 34 83 75 165 100 201 120 279 112 441 -9 175 -74 439 -134
544 -34 59 -67 89 -133 120 -49 23 -67 26 -170 26 -70 0 -134 -6 -164 -14
-126 -37 -298 -278 -488 -684 -87 -186 -153 -307 -168 -307 -14 0 -14 2 26
124 38 119 48 222 24 250 -28 34 -144 6 -325 -77 -196 -91 -331 -174 -463
-286 -46 -39 -87 -71 -92 -71 -5 0 -16 24 -24 53 -17 58 -40 84 -104 116 -74
38 -58 50 83 61 76 7 132 18 212 45 240 80 674 274 790 353 125 85 231 238
255 372 10 53 9 62 -13 106 -46 94 -146 135 -419 174 -315 44 -826 86 -922 76
-74 -7 -111 -23 -173 -75 -27 -22 -53 -41 -56 -41 -4 0 -6 18 -5 41 0 32 -5
45 -22 60 -30 24 -85 39 -143 39 -118 0 -425 -104 -672 -227 -214 -107 -180
-63 46 59 129 69 203 117 236 152 31 33 26 44 -68 159 -40 48 -70 87 -66 87 3
0 22 -10 43 -23 129 -80 317 -118 747 -152 320 -24 595 -35 920 -35 441 0 513
12 610 101 146 135 103 257 -148 422 -45 30 -183 105 -307 167 -124 62 -219
115 -213 117 7 3 40 -3 74 -12 109 -27 254 -38 440 -31 418 14 623 71 764 211
97 95 125 179 101 295 -34 156 -123 388 -169 439 -26 28 -133 81 -164 81 -49
0 -38 23 37 72 58 39 61 79 12 190 -2 5 1 8 7 8 6 0 69 -119 141 -265z m-2437
-202 c69 -83 185 -189 232 -213 33 -17 68 -25 105 -26 30 -1 60 -2 66 -3 6 0
29 -38 52 -83 22 -46 64 -108 91 -140 89 -99 69 -93 -116 32 -82 54 -211 149
-288 210 l-140 111 -65 -5 c-185 -16 -263 -19 -257 -9 4 6 50 28 103 48 71 27
106 48 133 75 20 21 40 39 44 39 5 1 23 -16 40 -36z m9143 -714 c21 -23 73
-25 115 -3 59 30 64 12 12 -47 -90 -102 -134 -198 -178 -387 -32 -134 -77
-225 -163 -331 -107 -132 -153 -202 -150 -225 2 -17 11 -22 50 -24 94 -6 348
100 718 299 423 227 593 304 900 406 201 67 348 125 417 164 29 16 56 29 60
29 17 0 -88 -64 -187 -114 -98 -49 -157 -74 -465 -191 -221 -85 -315 -155
-315 -238 0 -71 77 -84 540 -97 339 -9 516 -22 533 -39 19 -19 -248 -23 -812
-12 l-590 11 -148 -74 c-182 -91 -375 -176 -513 -228 -64 -23 -114 -49 -127
-64 -22 -23 -22 -27 -8 -54 21 -41 128 -114 425 -291 722 -431 1260 -776 1260
-808 0 -5 -9 -13 -21 -16 -33 -11 -50 -68 -57 -194 l-7 -116 -34 90 c-75 200
-160 323 -316 458 -140 121 -334 240 -502 306 -87 34 -272 130 -398 206 -149
90 -165 98 -244 124 -99 33 -151 27 -151 -16 0 -13 54 -160 120 -327 65 -167
140 -358 165 -426 77 -206 136 -316 256 -476 39 -52 33 -75 -27 -104 -55 -27
-74 -21 -74 22 -1 44 -35 125 -103 245 -69 121 -126 261 -206 508 -68 212
-145 379 -215 472 -78 102 -143 145 -281 182 -44 12 -86 24 -93 26 -9 3 -7 13
8 37 39 64 18 154 -55 244 l-26 31 123 42 c243 83 384 167 496 295 105 121
141 230 181 546 12 91 27 192 33 225 l12 60 12 -53 c7 -29 20 -62 30 -73z
m-9818 -491 c19 -19 14 -30 -10 -26 -13 2 -24 11 -26 21 -4 20 18 23 36 5z
m5172 2 c268 -16 360 -37 360 -81 0 -20 -4 -21 -82 -15 -46 3 -182 8 -303 11
-248 7 -509 22 -542 31 -24 7 -31 28 -12 39 39 25 308 31 579 15z m925 -76
c302 -33 492 -75 542 -118 70 -60 -21 -59 -412 3 -137 22 -295 45 -350 52
-101 12 -165 30 -165 47 0 13 20 29 45 35 27 8 182 -1 340 -19z m-300 -134 c4
-6 -7 -10 -24 -10 -17 0 -31 5 -31 10 0 6 11 10 24 10 14 0 28 -4 31 -10z
m1284 -15 c111 -8 329 -48 369 -69 52 -27 34 -73 -35 -85 -49 -9 -483 69 -552
100 -42 18 -44 21 -28 36 17 17 92 32 137 27 14 -2 63 -6 109 -9z m-1843 -35
c153 -12 264 -29 264 -40 0 -29 -131 -35 -464 -21 -274 11 -416 24 -446 41
-15 9 -15 9 55 23 41 9 467 7 591 -3z m854 -70 c275 -37 470 -71 523 -92 22
-8 25 -13 16 -24 -17 -20 -96 -17 -292 11 -95 13 -228 31 -297 40 -275 34
-381 60 -364 87 10 15 216 4 414 -22z m1649 -39 c46 -24 65 -46 57 -66 -6 -18
-36 -19 -106 -4 -61 13 -81 40 -54 70 22 24 55 24 103 0z m521 -56 c146 -17
436 -73 538 -104 111 -34 146 -74 77 -87 -50 -9 -416 44 -811 117 -128 24
-144 31 -128 56 22 36 117 41 324 18z m-1150 -66 c397 -69 615 -110 621 -117
4 -4 3 -18 -2 -31 -9 -23 -12 -24 -87 -18 -42 3 -180 24 -307 47 -530 94 -555
100 -555 129 0 10 3 21 7 24 14 14 96 6 323 -34z m1405 -145 c358 -50 510 -94
430 -124 -14 -5 -34 -10 -43 -10 -38 0 -623 127 -633 137 -18 18 -1 32 34 27
17 -2 113 -16 212 -30z m-7635 17 c0 -12 -51 -73 -57 -68 -6 7 38 77 48 77 5
0 9 -4 9 -9z m7270 -68 c176 -35 568 -121 648 -142 24 -7 42 -18 42 -26 0 -12
-26 -45 -35 -45 -2 0 -172 36 -377 80 -205 45 -395 86 -423 92 -89 19 -143 57
-108 76 20 12 11 13 253 -35z m-4470 -1053 c21 -11 46 -50 32 -50 -4 0 -23 13
-42 30 -34 28 -28 40 10 20z m-1611 -174 c5 -38 8 -73 5 -78 -3 -4 -19 -1 -36
8 -20 10 -45 14 -70 11 -47 -6 -49 5 -9 60 35 48 82 87 92 76 4 -4 12 -39 18
-77z m9528 12 c107 -39 55 -53 -56 -15 -74 25 -95 49 -34 40 21 -3 62 -14 90
-25z m-10487 -47 c0 -5 -17 -24 -37 -41 -45 -40 -59 -23 -17 21 27 28 54 38
54 20z m610 -189 c0 -15 -24 -32 -44 -32 -20 1 -20 1 3 20 24 21 41 26 41 12z
m9523 -173 c61 -31 98 -59 92 -70 -8 -11 -68 19 -119 60 -45 36 -33 40 27 10z"/>
<path d="M3855 3382 c-126 -81 -139 -249 -31 -400 52 -74 167 -142 238 -142
43 0 104 39 128 83 33 57 34 176 1 259 -26 67 -95 148 -157 184 -59 35 -139
42 -179 16z m158 -142 c53 -48 95 -123 103 -182 7 -50 -5 -80 -40 -103 -53
-35 -157 45 -189 146 -50 152 24 233 126 139z"/>
</g>
</svg>
